<svg viewBox="0 0 349.87 69.04" xmlns="http://www.w3.org/2000/svg"><g className="fill-current"><path d="m42.34.2h-42.34v68.8h42.34c.23 0 22.29-.27 22.29-23.71v-21.38c0-.24-.25-23.71-22.29-23.71zm7.06 28.8v12.42c0 10.92-9.57 11.32-10.64 11.32h-23.53v-36.34h23.53c10.24 0 10.63 10.18 10.64 11.32z"/><path d="m282.07 2.72-13.34 13.34a8.26 8.26 0 0 1 7.47 8.43v20.17a8.74 8.74 0 0 1 -1.09 4.19 7.88 7.88 0 0 1 -6.89 4.29h-19a8 8 0 0 1 -7.54-5.87c0-.08-.07-.16-.09-.25a8.8 8.8 0 0 1 -.35-2.36v-1.16l-13.5 13.55a19.07 19.07 0 0 0 4.41 6.81 17.15 17.15 0 0 0 12.1 5.14h29c9.83 0 17.83-8.51 17.83-19v-30.84a19.19 19.19 0 0 0 -9.01-16.44z"/><path d="m343.37 51.33a9.12 9.12 0 0 0 -2.37-.33h-23v-51h-18.92v68.45h50.79v-8.74a8.76 8.76 0 0 0 -6.5-8.38z"/><path d="m76.94 32.68-2.11 18.37-2.18 17.96v.04h17.79l.01-.04 1.8-14.91 1.2-9.73h13.02 2.99l-30.38-30.38z"/></g><path d="m241.29 24.49a8.25 8.25 0 0 1 8-8.49h19a4.43 4.43 0 0 1 .51.06l13.27-13.34a16.85 16.85 0 0 0 -8.84-2.52h-29c-9.83 0-17.83 8.51-17.83 19v30.8a19.66 19.66 0 0 0 1.32 7.07l13.57-13.57z" /><path d="m196.12.2h-42.35v68.8h42.35c.22 0 22-.28 22.27-23.36 0-.12 0-.23 0-.35v-21.38c.01-.24-.24-23.71-22.27-23.71zm7 41.22a14.81 14.81 0 0 1 -.31 3c-1.6 7.93-9.36 8.28-10.33 8.28h-23.48v-36.3h23.53c10.26 0 10.63 10.18 10.64 11.32z" /><path d="m145.75 69-3.43-28.74-.11-.93-3.51-29.74c-.6-5.07-5.7-9.19-11.49-9.19h-36.16a12.28 12.28 0 0 0 -8.15 3.16 9.69 9.69 0 0 0 -3.31 6l-.5 4.4 30.37 30.37h15.78l2.17 17.72v.27l6.66 6.68zm-45.13-40a4.79 4.79 0 0 1 -3.41-1.29 3.7 3.7 0 0 1 -1.07-3.14l.85-9h19.11c3 0 5.89 2.27 6.22 5l.79 8.42z"/></svg>