<svg xmlns="http://www.w3.org/2000/svg" version="1.1" xmlns:xlink="http://www.w3.org/1999/xlink" xmlns:svgjs="http://svgjs.dev/svgjs" viewBox="0 0 800 800" opacity="1" width="800" height="800"><g stroke-width="2" stroke="hsl(261, 60%, 38%)" fill="none"><rect width="100" height="88.88888888888889" x="0" y="0"></rect><rect width="100" height="88.88888888888889" x="100" y="0"></rect><rect width="100" height="88.88888888888889" x="200" y="0"></rect><rect width="100" height="88.88888888888889" x="300" y="0"></rect><rect width="100" height="88.88888888888889" x="400" y="0"></rect><rect width="100" height="88.88888888888889" x="500" y="0"></rect><rect width="100" height="88.88888888888889" x="600" y="0"></rect><rect width="100" height="88.88888888888889" x="700" y="0"></rect><rect width="100" height="88.88888888888889" x="800" y="0"></rect><rect width="100" height="88.88888888888889" x="0" y="88.88888888888889"></rect><rect width="100" height="88.88888888888889" x="100" y="88.88888888888889"></rect><rect width="100" height="88.88888888888889" x="200" y="88.88888888888889"></rect><rect width="100" height="88.88888888888889" x="300" y="88.88888888888889"></rect><rect width="100" height="88.88888888888889" x="400" y="88.88888888888889"></rect><rect width="100" height="88.88888888888889" x="500" y="88.88888888888889"></rect><rect width="100" height="88.88888888888889" x="600" y="88.88888888888889"></rect><rect width="100" height="88.88888888888889" x="700" y="88.88888888888889"></rect><rect width="100" height="88.88888888888889" x="800" y="88.88888888888889"></rect><rect width="100" height="88.88888888888889" x="0" y="177.77777777777777"></rect><rect width="100" height="88.88888888888889" x="100" y="177.77777777777777"></rect><rect width="100" height="88.88888888888889" x="200" y="177.77777777777777"></rect><rect width="100" height="88.88888888888889" x="300" y="177.77777777777777"></rect><rect width="100" height="88.88888888888889" x="400" y="177.77777777777777"></rect><rect width="100" height="88.88888888888889" x="500" y="177.77777777777777"></rect><rect width="100" height="88.88888888888889" x="600" y="177.77777777777777"></rect><rect width="100" height="88.88888888888889" x="700" y="177.77777777777777"></rect><rect width="100" height="88.88888888888889" x="800" y="177.77777777777777"></rect><rect width="100" height="88.88888888888889" x="0" y="266.66666666666663"></rect><rect width="100" height="88.88888888888889" x="100" y="266.66666666666663"></rect><rect width="100" height="88.88888888888889" x="200" y="266.66666666666663"></rect><rect width="100" height="88.88888888888889" x="300" y="266.66666666666663"></rect><rect width="100" height="88.88888888888889" x="400" y="266.66666666666663"></rect><rect width="100" height="88.88888888888889" x="500" y="266.66666666666663"></rect><rect width="100" height="88.88888888888889" x="600" y="266.66666666666663"></rect><rect width="100" height="88.88888888888889" x="700" y="266.66666666666663"></rect><rect width="100" height="88.88888888888889" x="800" y="266.66666666666663"></rect><rect width="100" height="88.88888888888889" x="0" y="355.55555555555554"></rect><rect width="100" height="88.88888888888889" x="100" y="355.55555555555554"></rect><rect width="100" height="88.88888888888889" x="200" y="355.55555555555554"></rect><rect width="100" height="88.88888888888889" x="300" y="355.55555555555554"></rect><rect width="100" height="88.88888888888889" x="400" y="355.55555555555554"></rect><rect width="100" height="88.88888888888889" x="500" y="355.55555555555554"></rect><rect width="100" height="88.88888888888889" x="600" y="355.55555555555554"></rect><rect width="100" height="88.88888888888889" x="700" y="355.55555555555554"></rect><rect width="100" height="88.88888888888889" x="800" y="355.55555555555554"></rect><rect width="100" height="88.88888888888889" x="0" y="444.44444444444446"></rect><rect width="100" height="88.88888888888889" x="100" y="444.44444444444446"></rect><rect width="100" height="88.88888888888889" x="200" y="444.44444444444446"></rect><rect width="100" height="88.88888888888889" x="300" y="444.44444444444446"></rect><rect width="100" height="88.88888888888889" x="400" y="444.44444444444446"></rect><rect width="100" height="88.88888888888889" x="500" y="444.44444444444446"></rect><rect width="100" height="88.88888888888889" x="600" y="444.44444444444446"></rect><rect width="100" height="88.88888888888889" x="700" y="444.44444444444446"></rect><rect width="100" height="88.88888888888889" x="800" y="444.44444444444446"></rect><rect width="100" height="88.88888888888889" x="0" y="533.3333333333334"></rect><rect width="100" height="88.88888888888889" x="100" y="533.3333333333334"></rect><rect width="100" height="88.88888888888889" x="200" y="533.3333333333334"></rect><rect width="100" height="88.88888888888889" x="300" y="533.3333333333334"></rect><rect width="100" height="88.88888888888889" x="400" y="533.3333333333334"></rect><rect width="100" height="88.88888888888889" x="500" y="533.3333333333334"></rect><rect width="100" height="88.88888888888889" x="600" y="533.3333333333334"></rect><rect width="100" height="88.88888888888889" x="700" y="533.3333333333334"></rect><rect width="100" height="88.88888888888889" x="800" y="533.3333333333334"></rect><rect width="100" height="88.88888888888889" x="0" y="622.2222222222223"></rect><rect width="100" height="88.88888888888889" x="100" y="622.2222222222223"></rect><rect width="100" height="88.88888888888889" x="200" y="622.2222222222223"></rect><rect width="100" height="88.88888888888889" x="300" y="622.2222222222223"></rect><rect width="100" height="88.88888888888889" x="400" y="622.2222222222223"></rect><rect width="100" height="88.88888888888889" x="500" y="622.2222222222223"></rect><rect width="100" height="88.88888888888889" x="600" y="622.2222222222223"></rect><rect width="100" height="88.88888888888889" x="700" y="622.2222222222223"></rect><rect width="100" height="88.88888888888889" x="800" y="622.2222222222223"></rect><rect width="100" height="88.88888888888889" x="0" y="711.1111111111112"></rect><rect width="100" height="88.88888888888889" x="100" y="711.1111111111112"></rect><rect width="100" height="88.88888888888889" x="200" y="711.1111111111112"></rect><rect width="100" height="88.88888888888889" x="300" y="711.1111111111112"></rect><rect width="100" height="88.88888888888889" x="400" y="711.1111111111112"></rect><rect width="100" height="88.88888888888889" x="500" y="711.1111111111112"></rect><rect width="100" height="88.88888888888889" x="600" y="711.1111111111112"></rect><rect width="100" height="88.88888888888889" x="700" y="711.1111111111112"></rect><rect width="100" height="88.88888888888889" x="800" y="711.1111111111112"></rect><rect width="100" height="88.88888888888889" x="0" y="800.0000000000001"></rect><rect width="100" height="88.88888888888889" x="100" y="800.0000000000001"></rect><rect width="100" height="88.88888888888889" x="200" y="800.0000000000001"></rect><rect width="100" height="88.88888888888889" x="300" y="800.0000000000001"></rect><rect width="100" height="88.88888888888889" x="400" y="800.0000000000001"></rect><rect width="100" height="88.88888888888889" x="500" y="800.0000000000001"></rect><rect width="100" height="88.88888888888889" x="600" y="800.0000000000001"></rect><rect width="100" height="88.88888888888889" x="700" y="800.0000000000001"></rect><rect width="100" height="88.88888888888889" x="800" y="800.0000000000001"></rect></g></svg>