<?xml version="1.0" encoding="utf-8"?>
<!-- Generator: Adobe Illustrator 26.3.1, SVG Export Plug-In . SVG Version: 6.00 Build 0)  -->
<svg version="1.1" id="레이어_1" xmlns="http://www.w3.org/2000/svg" xmlns:xlink="http://www.w3.org/1999/xlink" x="0px"
	 y="0px" viewBox="0 0 71 80" style="enable-background:new 0 0 71 80;" xml:space="preserve">
<style type="text/css">
	.st0{enable-background:new    ;}
</style>
<g className="fill-current">
	<g class="st0">
		<g>
			<path d="M61.1,40.8c-1.4-1-3.1-1.7-4.9-1.7c-4.5,0-8.2,3.7-8.2,8.2s3.7,8.2,8.2,8.2c1.9,0,3.6-0.6,4.9-1.7v1.7h3.3V39.1h-3.3
				V40.8z M56.2,52.3c-2.7,0-4.9-2.2-4.9-4.9s2.2-4.9,4.9-4.9c2.7,0,4.9,2.2,4.9,4.9S58.9,52.3,56.2,52.3z"/>
			<rect x="67.7" y="39.1" width="3.3" height="16.5"/>
			<rect x="67.7" y="34.2" width="3.3" height="3.3"/>
			<polygon points="47.9,39.1 43,39.1 37.2,44.9 34.8,47.3 34.8,47.3 34.8,29.2 31.5,29.2 31.5,55.6 34.8,55.6 34.8,52.3 37.2,49.8 
				43,55.6 47.9,55.6 39.7,47.3 			"/>
		</g>
	</g>
	<path d="M25.6,38.7c0.1,0.1,0.2,0.1,0.4,0.1c0.2,0,0.3,0,0.4-0.1c0.2-0.2,0.4-0.4,0.4-0.7v-8.4c0-0.3-0.2-0.6-0.5-0.7l-8.4-4.2
		c0,0,0,0-0.1,0c0,0-0.1,0-0.1,0c0,0-0.1,0-0.1,0c0,0-0.1,0-0.1,0c0,0-0.1,0-0.1,0c0,0-0.1,0-0.1,0c0,0-0.1,0-0.1,0c0,0,0,0-0.1,0
		L10,28.3v-7c0-0.3-0.2-0.6-0.4-0.7c-0.2-0.2-0.6-0.2-0.8,0l-8.4,4.2C0.2,24.8,0,25.1,0,25.4v8.4C0,33.9,0,34,0,34c0,0,0,0,0,0.1
		c0,0,0,0.1,0.1,0.1c0,0,0,0,0.1,0.1c0,0,0.1,0.1,0.1,0.1c0,0,0,0,0.1,0.1c0,0,0,0,0.1,0.1c0,0,0,0,0,0c0,0,0,0,0,0L7.3,38l-6.9,3.4
		C0.2,41.6,0,41.9,0,42.2v8.4c0,0.3,0.2,0.6,0.4,0.7c0.1,0.1,0.3,0.1,0.4,0.1c0.1,0,0.3,0,0.4-0.1l8-4l16.4,8.2
		c0.1,0.1,0.2,0.1,0.4,0.1c0.2,0,0.3,0,0.4-0.1c0.2-0.2,0.4-0.4,0.4-0.7v-8.4c0-0.3-0.2-0.6-0.5-0.7L11.1,38l6.5-3.2L25.6,38.7z
		 M25.1,36.6l-6.7-3.3v-6.5l6.7,3.3V36.6z M1.7,26l6.7-3.3v6.5l-6.7,3.3V26z M16.7,26.8v6.5l-7.5,3.8l-6.5-3.2L16.7,26.8z M1.7,42.7
		l6.7-3.3v6.5l-6.7,3.3V42.7z M25.1,53.4L10,45.9v-6.5l15.1,7.5V53.4z"/>
</g>
</svg>
