<svg id="visual" viewBox="0 0 900 900" width="900" height="900" xmlns="http://www.w3.org/2000/svg" xmlns:xlink="http://www.w3.org/1999/xlink" version="1.1"><path d="M0 290L21.5 294.8C43 299.7 86 309.3 128.8 313C171.7 316.7 214.3 314.3 257.2 308.7C300 303 343 294 385.8 298.8C428.7 303.7 471.3 322.3 514.2 335.3C557 348.3 600 355.7 642.8 355.8C685.7 356 728.3 349 771.2 330.7C814 312.3 857 282.7 878.5 267.8L900 253L900 0L878.5 0C857 0 814 0 771.2 0C728.3 0 685.7 0 642.8 0C600 0 557 0 514.2 0C471.3 0 428.7 0 385.8 0C343 0 300 0 257.2 0C214.3 0 171.7 0 128.8 0C86 0 43 0 21.5 0L0 0Z" fill="#818cf8"></path><path d="M0 215L21.5 213C43 211 86 207 128.8 211.2C171.7 215.3 214.3 227.7 257.2 234.8C300 242 343 244 385.8 251.3C428.7 258.7 471.3 271.3 514.2 264.3C557 257.3 600 230.7 642.8 231.8C685.7 233 728.3 262 771.2 263.8C814 265.7 857 240.3 878.5 227.7L900 215L900 0L878.5 0C857 0 814 0 771.2 0C728.3 0 685.7 0 642.8 0C600 0 557 0 514.2 0C471.3 0 428.7 0 385.8 0C343 0 300 0 257.2 0C214.3 0 171.7 0 128.8 0C86 0 43 0 21.5 0L0 0Z" fill="#757ffb"></path><path d="M0 147L21.5 161.5C43 176 86 205 128.8 214.3C171.7 223.7 214.3 213.3 257.2 206.2C300 199 343 195 385.8 190.3C428.7 185.7 471.3 180.3 514.2 177C557 173.7 600 172.3 642.8 173.5C685.7 174.7 728.3 178.3 771.2 185C814 191.7 857 201.3 878.5 206.2L900 211L900 0L878.5 0C857 0 814 0 771.2 0C728.3 0 685.7 0 642.8 0C600 0 557 0 514.2 0C471.3 0 428.7 0 385.8 0C343 0 300 0 257.2 0C214.3 0 171.7 0 128.8 0C86 0 43 0 21.5 0L0 0Z" fill="#6971fd"></path><path d="M0 113L21.5 120.3C43 127.7 86 142.3 128.8 149.5C171.7 156.7 214.3 156.3 257.2 156.3C300 156.3 343 156.7 385.8 146.2C428.7 135.7 471.3 114.3 514.2 103.8C557 93.3 600 93.7 642.8 97.8C685.7 102 728.3 110 771.2 122.2C814 134.3 857 150.7 878.5 158.8L900 167L900 0L878.5 0C857 0 814 0 771.2 0C728.3 0 685.7 0 642.8 0C600 0 557 0 514.2 0C471.3 0 428.7 0 385.8 0C343 0 300 0 257.2 0C214.3 0 171.7 0 128.8 0C86 0 43 0 21.5 0L0 0Z" fill="#5e63fe"></path><path d="M0 68L21.5 65.8C43 63.7 86 59.3 128.8 64.5C171.7 69.7 214.3 84.3 257.2 83C300 81.7 343 64.3 385.8 66.3C428.7 68.3 471.3 89.7 514.2 94.3C557 99 600 87 642.8 81.5C685.7 76 728.3 77 771.2 74.5C814 72 857 66 878.5 63L900 60L900 0L878.5 0C857 0 814 0 771.2 0C728.3 0 685.7 0 642.8 0C600 0 557 0 514.2 0C471.3 0 428.7 0 385.8 0C343 0 300 0 257.2 0C214.3 0 171.7 0 128.8 0C86 0 43 0 21.5 0L0 0Z" fill="#5454ff"></path></svg>